<!-- https://www.svggenie.com/tools/font-to-svg -->
<svg width="727" height="101" xmlns="http://www.w3.org/2000/svg">
  <path d="M53.79 80.61L53.79 80.61L44.20 69.13Q42.72 67.32 41.16 67.32L41.16 67.32Q39.28 67.32 39.28 70.44L39.28 70.44L39.28 78.23Q39.28 79.70 37.97 80.61Q36.65 81.51 34.85 81.67L34.85 81.67Q29.68 82 23.17 82Q16.65 82 10.82 81.67L10.82 81.67Q8.36 81.51 6.89 79.99Q5.41 78.47 5.25 76.59L5.25 76.59Q4.59 69.37 4.59 54.16Q4.59 38.95 4.96 33.54Q5.33 28.13 6.44 26.36Q7.54 24.60 10.99 24.60L10.99 24.60L32.96 24.60Q35.67 24.60 37.47 26.73Q39.28 28.86 39.28 31.98L39.28 31.98L39.36 41.16Q39.36 42.89 40.26 42.89L40.26 42.89Q40.84 42.89 42.56 41.49L42.56 41.49L58.63 26.49Q60.60 24.60 63.35 24.56Q66.09 24.52 69.21 24.52L69.21 24.52L75.52 24.60Q76.83 24.60 77.33 25.83Q77.82 27.06 76.83 28.04L76.83 28.04Q67.40 37.47 57.97 45.51L57.97 45.51Q57.15 46.25 57.15 47.03Q57.15 47.81 58.06 48.71L58.06 48.71L62.48 53.14Q65.85 56.50 68.02 58.63Q70.19 60.76 73.14 63.80L73.14 63.80Q79.05 69.86 82.16 73.64L82.16 73.64Q83.80 75.60 83.80 77.65L83.80 77.65Q83.80 78.39 83.56 79.21L83.56 79.21Q82.66 82 79.62 82L79.62 82L57.56 82Q55.02 82 53.79 80.61ZM143.34 28.45L143.34 28.45L170.15 73.80Q171.79 76.51 171.79 78.35Q171.79 80.20 170.31 81.10Q168.84 82 166.87 82L166.87 82L140.47 82Q136.45 82 135.30 80.52L135.30 80.52Q134.97 80.03 134.40 78.80L134.40 78.80L132.02 73.72Q130.95 71.34 127.02 71.01L127.02 71.01L111.52 71.01Q109.80 71.01 108.90 71.34Q107.99 71.67 107.42 72.82L107.42 72.82L104.22 79.46Q103.40 80.93 102.42 81.47Q101.43 82 99.55 82L99.55 82L92.17 82Q88.97 82 88.72 79.70L88.72 79.70Q88.64 79.38 88.64 79.05L88.64 79.05Q88.64 77.16 89.87 75.44L89.87 75.44L115.54 30.18Q119.23 23.78 127.51 23.78L127.51 23.78L134.07 23.78Q140.63 23.78 143.34 28.45ZM116.77 49.45L116.77 49.45L113.00 56.91Q112.67 57.65 112.67 58.22L112.67 58.22Q112.67 60.35 114.72 60.35L114.72 60.35L122.18 60.35Q123.90 60.35 124.56 59.49Q125.21 58.63 125.21 57.97Q125.21 57.32 124.97 56.66L124.97 56.66L121.85 49.61Q120.87 47.48 119.31 47.48Q117.75 47.48 116.77 49.45ZM213.36 41.74L213.36 41.74L213.53 56.91Q213.53 58.47 215.25 58.47L215.25 58.47Q220.33 58.47 223.25 55.64Q226.16 52.81 226.16 48.95Q226.16 45.10 223.41 42.31Q220.66 39.52 215.33 39.52L215.33 39.52Q213.36 39.52 213.36 41.74ZM234.85 66.26L234.85 66.26Q236.41 67.90 245.92 78.64L245.92 78.64Q246.49 79.38 246.49 79.95L246.49 79.95Q246.49 82.08 244.61 82.08L244.61 82.08Q240.26 82.16 235.87 82.16Q231.49 82.16 227.14 82.08L227.14 82.08Q224.76 82.08 222.79 80.20L222.79 80.20L215.74 69.54Q215.33 69.04 214.76 68.88L214.76 68.88Q213.45 68.39 213.45 69.95L213.45 69.95L213.45 78.31Q213.45 81.84 208.81 82.08Q204.18 82.33 198.69 82.33Q193.19 82.33 185.40 81.92L185.40 81.92Q183.02 81.75 181.59 80.28Q180.15 78.80 179.91 76.92L179.91 76.92Q179.25 69.70 179.25 54.24Q179.25 38.79 179.74 31.73Q180.24 24.68 186.88 24.60L186.88 24.60Q193.11 24.52 203.85 24.52Q214.59 24.52 221.65 24.68L221.65 24.68Q231.81 24.85 238.29 32.23Q244.77 39.61 244.77 48.87L244.77 48.87Q244.77 54.28 242.27 58.88Q239.77 63.47 234.85 66.26ZM283.31 28.86Q286.34 32.64 290.28 38.58Q294.22 44.53 295.77 46.49Q297.33 48.46 298.28 48.46Q299.22 48.46 299.96 47.40Q300.69 46.33 305.37 39.20Q310.04 32.06 313.08 28.33Q316.11 24.60 317.91 24.52Q319.72 24.44 322.59 24.44Q325.46 24.44 329.31 24.60Q333.17 24.76 334.44 26.61Q335.71 28.45 335.95 31.82L335.95 31.82Q336.45 40.43 336.45 54.65Q336.45 68.88 335.71 77.08L335.71 77.08Q335.54 79.05 334.23 80.61Q332.92 82.16 330.62 82.16L330.62 82.16Q325.62 82.25 319.51 82.25Q313.40 82.25 309.80 82L309.80 82Q308.48 81.92 307.46 80.97Q306.43 80.03 306.35 78.47L306.35 78.47L305.86 64.94Q305.78 62.98 305.00 62.73Q304.22 62.48 303.56 63.80L303.56 63.80Q299.22 71.50 292.74 81.02L292.74 81.02Q291.18 83.39 288.64 83.39Q286.10 83.39 284.46 81.02L284.46 81.02Q281.59 76.92 274.70 63.63L274.70 63.63Q274.29 62.81 273.76 62.65Q273.22 62.48 272.81 63.06Q272.40 63.63 272.40 64.94L272.40 64.94L271.99 78.47Q271.91 80.03 270.60 80.97Q269.29 81.92 267.57 82L267.57 82L259.45 82Q257.23 81.92 255.88 80.44Q254.53 78.97 254.28 77.08L254.28 77.08Q253.63 69.78 253.63 54.41Q253.63 39.03 254.04 31.82L254.04 31.82Q254.28 28.37 255.59 26.49Q256.91 24.60 260.27 24.60L260.27 24.60Q277.49 24.60 278.88 24.85Q280.28 25.09 283.31 28.86ZM385.89 83.64L385.89 83.64Q375.97 83.64 367.93 81.06Q359.90 78.47 354.90 74.13Q349.89 69.78 347.27 64.41Q344.65 59.04 344.65 53.22Q344.65 47.40 347.31 42.02Q349.98 36.65 354.94 32.31Q359.90 27.96 367.93 25.34Q375.97 22.71 385.56 22.71Q395.16 22.71 402.54 25.09Q409.92 27.47 414.43 31.57L414.43 31.57Q423.61 39.93 423.61 51.41L423.61 51.41Q423.61 57.24 421.11 62.81Q418.61 68.39 413.98 72.94Q409.34 77.49 402.05 80.40Q394.75 83.31 385.89 83.64ZM402.13 51.78Q402.13 47.89 399.34 44.98Q396.55 42.07 390.85 42.07Q385.15 42.07 381.79 45.10Q378.43 48.13 378.43 52.48Q378.43 56.83 381.96 59.45Q385.48 62.07 390.44 62.07Q395.40 62.07 398.77 58.88Q402.13 55.68 402.13 51.78ZM497.74 58.22L497.74 58.22L497.66 68.88Q497.66 69.62 498.15 70.15Q498.64 70.68 499.46 70.68L499.46 70.68Q504.46 70.68 507.70 68.72Q510.94 66.75 510.94 62.52Q510.94 58.30 507.58 56.66L507.58 56.66Q504.87 55.35 501.68 55.35L501.68 55.35Q500.86 55.35 500.04 55.43L500.04 55.43Q497.74 55.60 497.74 58.22ZM497.66 35.67L497.66 35.67L497.74 42.39Q497.74 43.95 499.63 43.95L499.63 43.95Q507.91 43.95 507.91 39.28L507.91 39.28Q507.91 33.87 500.53 33.87L500.53 33.87Q500.04 33.87 499.63 33.87L499.63 33.87Q497.66 33.87 497.66 35.67ZM470.84 24.68L470.84 24.68Q481.01 24.35 496.26 24.35Q511.52 24.35 517.38 24.64Q523.24 24.93 527.75 29.19Q532.26 33.46 532.26 39.03L532.26 39.03Q532.26 45.84 526.36 49.04L526.36 49.04Q525.78 49.36 525.78 49.81Q525.78 50.27 526.36 50.43L526.36 50.43Q530.62 51.58 533.53 55.35Q536.44 59.12 536.44 64.29L536.44 64.29Q536.44 70.77 531.44 76.01Q526.44 81.26 516.11 81.71Q505.78 82.16 501.18 82.16Q496.59 82.16 470.52 81.92L470.52 81.92Q468.14 81.92 466.66 80.40Q465.19 78.88 464.94 76.92L464.94 76.92Q464.28 69.70 464.28 55.88Q464.28 42.07 464.86 32.31L464.86 32.31Q465.10 28.29 466.25 26.53Q467.40 24.76 470.84 24.68ZM584.09 83.64L584.09 83.64Q574.16 83.64 566.13 81.06Q558.09 78.47 553.09 74.13Q548.09 69.78 545.46 64.41Q542.84 59.04 542.84 53.22Q542.84 47.40 545.51 42.02Q548.17 36.65 553.13 32.31Q558.09 27.96 566.13 25.34Q574.16 22.71 583.76 22.71Q593.35 22.71 600.73 25.09Q608.11 27.47 612.62 31.57L612.62 31.57Q621.81 39.93 621.81 51.41L621.81 51.41Q621.81 57.24 619.31 62.81Q616.80 68.39 612.17 72.94Q607.54 77.49 600.24 80.40Q592.94 83.31 584.09 83.64ZM600.32 51.78Q600.32 47.89 597.53 44.98Q594.75 42.07 589.05 42.07Q583.35 42.07 579.99 45.10Q576.62 48.13 576.62 52.48Q576.62 56.83 580.15 59.45Q583.68 62.07 588.64 62.07Q593.60 62.07 596.96 58.88Q600.32 55.68 600.32 51.78ZM676.66 77.00L676.66 77.00Q676.58 78.80 675.11 80.32Q673.63 81.84 671.17 82L671.17 82Q666.50 82.33 659.94 82.33Q653.38 82.33 647.88 82L647.88 82Q645.42 81.84 643.95 80.32Q642.47 78.80 642.39 77.00L642.39 77.00Q642.14 64.53 642.14 55.72Q642.14 46.90 642.22 42.80L642.22 42.80Q642.22 39.69 639.44 39.69L639.44 39.69L632.06 39.69Q630.33 39.69 629.27 38.87Q628.20 38.05 628.08 36.00Q627.96 33.95 627.96 31.73Q627.96 29.52 628.08 27.92Q628.20 26.32 629.39 25.46Q630.58 24.60 631.97 24.60L631.97 24.60Q642.63 24.44 660.84 24.44Q679.04 24.44 686.91 24.60L686.91 24.60Q688.31 24.68 689.50 25.50Q690.69 26.32 690.81 27.92Q690.93 29.52 690.93 31.65Q690.93 33.78 690.85 35.75L690.85 35.75Q690.60 39.44 686.83 39.44L686.83 39.44L679.45 39.44Q676.66 39.44 676.66 42.31L676.66 42.31Q676.91 52.64 676.91 61.01Q676.91 69.37 676.66 77.00Z" transform="translate(15.408, -2.7139999999999986)" fill="#6366f1"/>
</svg>